<mxfile host="Electron" agent="Mozilla/5.0 (Windows NT 10.0; Win64; x64) AppleWebKit/537.36 (KHTML, like Gecko) draw.io/26.2.15 Chrome/134.0.6998.205 Electron/35.2.1 Safari/537.36" version="26.2.15">
  <diagram name="第 1 页" id="E-bKs91G1S3x9Wj19TOa">
    <mxGraphModel dx="1213" dy="828" grid="1" gridSize="10" guides="1" tooltips="1" connect="1" arrows="1" fold="1" page="1" pageScale="1" pageWidth="827" pageHeight="1169" math="0" shadow="0">
      <root>
        <mxCell id="0" />
        <mxCell id="1" parent="0" />
        <mxCell id="Qv23-FOpmY6BhKtFZPsY-1" value="" style="ellipse;fillColor=strokeColor;" vertex="1" parent="1">
          <mxGeometry x="237" y="20" width="14" height="14" as="geometry" />
        </mxCell>
        <mxCell id="Qv23-FOpmY6BhKtFZPsY-2" value="空闲" style="rounded=1;arcSize=20;strokeWidth=2" vertex="1" parent="1">
          <mxGeometry x="220" y="84" width="48" height="40" as="geometry" />
        </mxCell>
        <mxCell id="Qv23-FOpmY6BhKtFZPsY-3" value="已预约" style="rounded=1;arcSize=20;strokeWidth=2" vertex="1" parent="1">
          <mxGeometry x="20" y="197" width="64" height="40" as="geometry" />
        </mxCell>
        <mxCell id="Qv23-FOpmY6BhKtFZPsY-4" value="占用" style="rounded=1;arcSize=20;strokeWidth=2" vertex="1" parent="1">
          <mxGeometry x="215" y="309" width="48" height="40" as="geometry" />
        </mxCell>
        <mxCell id="Qv23-FOpmY6BhKtFZPsY-5" value="维护中" style="rounded=1;arcSize=20;strokeWidth=2" vertex="1" parent="1">
          <mxGeometry x="212" y="197" width="64" height="40" as="geometry" />
        </mxCell>
        <mxCell id="Qv23-FOpmY6BhKtFZPsY-6" value="" style="curved=1;startArrow=none;;exitX=0.5;exitY=1;entryX=0.5;entryY=0;rounded=0;" edge="1" parent="1" source="Qv23-FOpmY6BhKtFZPsY-1" target="Qv23-FOpmY6BhKtFZPsY-2">
          <mxGeometry relative="1" as="geometry">
            <Array as="points" />
          </mxGeometry>
        </mxCell>
        <mxCell id="Qv23-FOpmY6BhKtFZPsY-7" value="用户预约成功" style="curved=1;startArrow=none;;exitX=0;exitY=0.68;entryX=0.5;entryY=-0.01;rounded=0;" edge="1" parent="1" source="Qv23-FOpmY6BhKtFZPsY-2" target="Qv23-FOpmY6BhKtFZPsY-3">
          <mxGeometry relative="1" as="geometry">
            <Array as="points">
              <mxPoint x="52" y="160" />
            </Array>
          </mxGeometry>
        </mxCell>
        <mxCell id="Qv23-FOpmY6BhKtFZPsY-8" value="车辆实际停放" style="curved=1;startArrow=none;;exitX=0.5;exitY=0.99;entryX=-0.01;entryY=0.33;rounded=0;" edge="1" parent="1" source="Qv23-FOpmY6BhKtFZPsY-3" target="Qv23-FOpmY6BhKtFZPsY-4">
          <mxGeometry relative="1" as="geometry">
            <Array as="points">
              <mxPoint x="52" y="273" />
            </Array>
          </mxGeometry>
        </mxCell>
        <mxCell id="Qv23-FOpmY6BhKtFZPsY-9" value="车辆离场完成" style="curved=1;startArrow=none;;exitX=0.99;exitY=0.3;entryX=1;entryY=0.71;rounded=0;" edge="1" parent="1" source="Qv23-FOpmY6BhKtFZPsY-4" target="Qv23-FOpmY6BhKtFZPsY-2">
          <mxGeometry relative="1" as="geometry">
            <Array as="points">
              <mxPoint x="402" y="273" />
              <mxPoint x="402" y="160" />
            </Array>
          </mxGeometry>
        </mxCell>
        <mxCell id="Qv23-FOpmY6BhKtFZPsY-10" value="管理员标记维护" style="curved=1;startArrow=none;;exitX=0.03;exitY=1;entryX=0.14;entryY=-0.01;rounded=0;" edge="1" parent="1" source="Qv23-FOpmY6BhKtFZPsY-2" target="Qv23-FOpmY6BhKtFZPsY-5">
          <mxGeometry relative="1" as="geometry">
            <Array as="points">
              <mxPoint x="180" y="160" />
            </Array>
          </mxGeometry>
        </mxCell>
        <mxCell id="Qv23-FOpmY6BhKtFZPsY-11" value="维护完成确认" style="curved=1;startArrow=none;;exitX=0.86;exitY=-0.01;entryX=0.97;entryY=1;rounded=0;" edge="1" parent="1" source="Qv23-FOpmY6BhKtFZPsY-5" target="Qv23-FOpmY6BhKtFZPsY-2">
          <mxGeometry relative="1" as="geometry">
            <Array as="points">
              <mxPoint x="308" y="160" />
            </Array>
          </mxGeometry>
        </mxCell>
      </root>
    </mxGraphModel>
  </diagram>
</mxfile>
